# xmcd
#
# Track frame offsets:
#	150
#	21063
#	40813
#	57582
#	84147
#	100130
#	116431
#	130958
#	145668
#	161143
#	180673
#	199409
#	217291
#	235892
#	249495
#	266733
#	271529
#	295635
#	312430
#	329408
#
# Disc length: 4574 seconds
#
# Revision: 0
# Processed by: cddbd v1.5.2PL0 Copyright (c) Steve Scherf et al.
# Submitted via: audiograbber 1.83.01
#
DISCID=2611dc14
DTITLE=Cory-M-Coons - Retrospective 1999-2010
DYEAR=1900
DGENRE=
TTITLE0=Everytime I Think About You
TTITLE1=Too Many Nights
TTITLE2=Unanswered
TTITLE3=Crumbs
TTITLE4=Faded Glory
TTITLE5=Spanish Dream In Paradise
TTITLE6=Old Man Plays On
TTITLE7=Better Things
TTITLE8=Rhythm Train
TTITLE9=Empty Grace
TTITLE10=Round' The World
TTITLE11=Tonight
TTITLE12=Lost In You
TTITLE13=A Fool's Reality
TTITLE14=Spend My Days
TTITLE15=Violet (instrumental)
TTITLE16=Love Don't Come Easy
TTITLE17=Unanswered (acoustic version)
TTITLE18=Footprints
TTITLE19=Mountain Station Blues
EXTD=
EXTT0=
EXTT1=
EXTT2=
EXTT3=
EXTT4=
EXTT5=
EXTT6=
EXTT7=
EXTT8=
EXTT9=
EXTT10=
EXTT11=
EXTT12=
EXTT13=
EXTT14=
EXTT15=
EXTT16=
EXTT17=
EXTT18=
EXTT19=
PLAYORDER=
